M48
;Layer_Color=9474304
;FILE_FORMAT=2:4
INCH
;TYPE=PLATED
T1F00S00C0.0130
T2F00S00C0.0280
%
T01
X066350Y037750
X067135Y037200
X068550
X069250Y037650
X070263Y037013
X071350Y037045
X071700Y037350
X072250Y037100
X071508Y038042
X071000Y038100
X071535Y038765
X072100Y040050
X072450Y040750
X070500Y041800
X070050Y041750
X070100Y041400
X070285Y042415
X070800Y042685
X069750Y042700
X069200Y042950
X069100Y042550
X069050Y041550
X068500Y041250
X068100Y041100
X067500Y040750
X067297Y040403
X066350Y040650
X066950Y039500
X067850Y038800
X068658Y039751
X070300Y039850
X070350Y043950
X070600Y044200
X071400Y044750
Y045200
X071900Y046000
Y046850
X070950Y046450
X072450Y044300
Y043800
X069500Y043350
X069200Y044050
X068600Y044200
X067850Y043750
X068350Y043000
X067950Y042150
X067830Y041820
X067750Y045450
X066800Y046000
X067250Y046700
X067600Y046885
X068733Y046884
X070050
X069524Y048126
X068450Y048150
X067350Y048500
X066650Y049650
X069450Y049600
X070694Y049722
X071400Y049800
X071550Y049000
X071950Y048900
X071000Y048650
X070250Y048700
X071400Y047650
X072000Y047317
Y050350
X066450Y046900
T02
X067689Y036603
X068189
X068689
X069189
X069689
X070189
X070689
X071189
X071689
X071039Y050153
X070539
X070039
X069539
X069039
X068539
X068039
X067539
X067039
M30
