%FSAX24Y24*%
%MOIN*%
G70*
G01*
G75*
%ADD10R,0.0512X0.0315*%
%ADD11R,0.0315X0.0512*%
%ADD12C,0.0197*%
%ADD13C,0.0080*%
%ADD14C,0.0150*%
%ADD15C,0.0250*%
%ADD16C,0.0350*%
%ADD17C,0.0060*%
%ADD18C,0.0300*%
%ADD19C,0.0200*%
%ADD20C,0.0100*%
%ADD21C,0.0430*%
%ADD22R,0.0430X0.0430*%
%ADD23C,0.0270*%
%ADD24R,0.0300X0.0350*%
%ADD25R,0.0394X0.0354*%
%ADD26R,0.0350X0.0300*%
%ADD27R,0.0450X0.0500*%
%ADD28R,0.0354X0.0315*%
%ADD29R,0.1063X0.0512*%
%ADD30R,0.0748X0.0217*%
%ADD31R,0.0217X0.0748*%
%ADD32R,0.0551X0.0453*%
%ADD33C,0.0120*%
%ADD34C,0.0079*%
%ADD35C,0.0070*%
%ADD36R,0.0552X0.0355*%
%ADD37R,0.0355X0.0552*%
%ADD38C,0.0257*%
%ADD39C,0.0450*%
%ADD40R,0.0450X0.0450*%
%ADD41R,0.0360X0.0410*%
%ADD42R,0.0454X0.0414*%
%ADD43R,0.0410X0.0360*%
%ADD44R,0.0510X0.0560*%
%ADD45R,0.0414X0.0375*%
%ADD46R,0.1123X0.0572*%
%ADD47R,0.0788X0.0257*%
%ADD48R,0.0257X0.0788*%
%ADD49R,0.0808X0.0277*%
%ADD50R,0.0611X0.0513*%
%ADD51C,0.0098*%
%ADD52C,0.0236*%
%ADD53C,0.0050*%
%ADD54C,0.0067*%
D53*
X067549Y036603D02*
X067829D01*
X068049D02*
X068329D01*
X068549D02*
X068829D01*
X069049D02*
X069329D01*
X069549D02*
X069829D01*
X070049D02*
X070329D01*
X070549D02*
X070829D01*
X071049D02*
X071329D01*
X071549D02*
X071829D01*
X071689Y036463D02*
Y036743D01*
X071189D02*
Y036463D01*
X070689D02*
Y036743D01*
X072185Y037100D02*
X072315D01*
X072250Y037035D02*
Y037165D01*
X071535Y038700D02*
Y038830D01*
X071470Y038765D02*
X071600D01*
X071573Y038042D02*
X071443D01*
X071508Y037977D02*
Y038107D01*
X071065Y038100D02*
X070935D01*
X071000Y038035D02*
Y038165D01*
X071285Y037045D02*
X071415D01*
X071350Y036980D02*
Y037110D01*
X071635Y037350D02*
X071765D01*
X071700Y037285D02*
Y037415D01*
X070328Y037013D02*
X070198D01*
X070263Y036948D02*
Y037078D01*
X069250Y037585D02*
Y037715D01*
X069185Y037650D02*
X069315D01*
X069189Y036743D02*
Y036463D01*
X069689D02*
Y036743D01*
X070189D02*
Y036463D01*
X068550Y037135D02*
Y037265D01*
X068485Y037200D02*
X068615D01*
X068689Y036743D02*
Y036463D01*
X068189D02*
Y036743D01*
X067689D02*
Y036463D01*
X067135Y037135D02*
Y037265D01*
X067070Y037200D02*
X067200D01*
X066350Y037685D02*
Y037815D01*
X066285Y037750D02*
X066415D01*
X067785Y038800D02*
X067915D01*
X067850Y038735D02*
Y038865D01*
X068658Y039686D02*
Y039816D01*
X068593Y039751D02*
X068723D01*
X068500Y041185D02*
Y041315D01*
X068435Y041250D02*
X068565D01*
X068985Y041550D02*
X069115D01*
X069050Y041485D02*
Y041615D01*
X069100Y042485D02*
Y042615D01*
X069035Y042550D02*
X069165D01*
X069750Y042635D02*
Y042765D01*
X069685Y042700D02*
X069815D01*
X069200Y042885D02*
Y043015D01*
X069265Y042950D02*
X069135D01*
X068415Y043000D02*
X068285D01*
X068350Y042935D02*
Y043065D01*
X067850Y043685D02*
Y043815D01*
X067785Y043750D02*
X067915D01*
X069135Y044050D02*
X069265D01*
X069200Y043985D02*
Y044115D01*
X069435Y043350D02*
X069565D01*
X069500Y043285D02*
Y043415D01*
X070285Y043950D02*
X070415D01*
X070350Y043885D02*
Y044015D01*
Y042415D02*
X070220D01*
X070285Y042350D02*
Y042480D01*
X070435Y041800D02*
X070565D01*
X070500Y041735D02*
Y041865D01*
X070115Y041750D02*
X069985D01*
X070050Y041685D02*
Y041815D01*
X070100Y041465D02*
Y041335D01*
X070035Y041400D02*
X070165D01*
X070235Y039850D02*
X070365D01*
X070300Y039785D02*
Y039915D01*
X072035Y040050D02*
X072165D01*
X072100Y039985D02*
Y040115D01*
X072385Y040750D02*
X072515D01*
X072450Y040685D02*
Y040815D01*
X070800Y042620D02*
Y042750D01*
X070735Y042685D02*
X070865D01*
X072385Y043800D02*
X072515D01*
X072450Y043735D02*
Y043865D01*
Y044235D02*
Y044365D01*
X072385Y044300D02*
X072515D01*
X071900Y045935D02*
Y046065D01*
X071835Y046000D02*
X071965D01*
X071900Y046785D02*
Y046915D01*
X071835Y046850D02*
X071965D01*
X071015Y046450D02*
X070885D01*
X070950Y046385D02*
Y046515D01*
X071335Y045200D02*
X071465D01*
X071400Y045135D02*
Y045265D01*
Y044815D02*
Y044685D01*
X071335Y044750D02*
X071465D01*
X070665Y044200D02*
X070535D01*
X070600Y044135D02*
Y044265D01*
X070050Y046818D02*
Y046948D01*
X069985Y046884D02*
X070115D01*
X071335Y047650D02*
X071465D01*
X071400Y047585D02*
Y047715D01*
X071935Y047317D02*
X072065D01*
X072000Y047252D02*
Y047382D01*
X071950Y048835D02*
Y048965D01*
X071885Y048900D02*
X072015D01*
X071550Y048935D02*
Y049065D01*
X071485Y049000D02*
X071615D01*
X071065Y048650D02*
X070935D01*
X071000Y048585D02*
Y048715D01*
X070694Y049657D02*
Y049787D01*
X070629Y049722D02*
X070759D01*
X071335Y049800D02*
X071465D01*
X071400Y049735D02*
Y049865D01*
X071039Y050013D02*
Y050293D01*
X070899Y050153D02*
X071179D01*
X070679D02*
X070399D01*
X070179D02*
X069899D01*
X069679D02*
X069399D01*
X069179D02*
X068899D01*
X068679D02*
X068399D01*
X068179D02*
X067899D01*
X067679D02*
X067399D01*
X067179D02*
X066899D01*
X067039Y050013D02*
Y050293D01*
X067539D02*
Y050013D01*
X066715Y049650D02*
X066585D01*
X066650Y049585D02*
Y049715D01*
X067350Y048565D02*
Y048435D01*
X067285Y048500D02*
X067415D01*
X067535Y046885D02*
X067665D01*
X068668Y046884D02*
X068798D01*
X068733Y046818D02*
Y046948D01*
X067815Y045450D02*
X067685D01*
X067750Y045385D02*
Y045515D01*
X068535Y044200D02*
X068665D01*
X068600Y044135D02*
Y044265D01*
X066800Y045935D02*
Y046065D01*
X066735Y046000D02*
X066865D01*
X067185Y046700D02*
X067315D01*
X067250Y046635D02*
Y046765D01*
X067600Y046820D02*
Y046950D01*
X066515Y046900D02*
X066385D01*
X066450Y046835D02*
Y046965D01*
X068385Y048150D02*
X068515D01*
X068450Y048085D02*
Y048215D01*
X069459Y048126D02*
X069589D01*
X069524Y048061D02*
Y048191D01*
X070185Y048700D02*
X070315D01*
X070250Y048635D02*
Y048765D01*
X069450Y049535D02*
Y049665D01*
X069385Y049600D02*
X069515D01*
X071935Y050350D02*
X072065D01*
X072000Y050285D02*
Y050415D01*
X070539Y050293D02*
Y050013D01*
X070039D02*
Y050293D01*
X069539D02*
Y050013D01*
X069039D02*
Y050293D01*
X068539D02*
Y050013D01*
X068039D02*
Y050293D01*
X068015Y042150D02*
X067885D01*
X067950Y042085D02*
Y042215D01*
X067895Y041820D02*
X067765D01*
X067830Y041755D02*
Y041885D01*
X068035Y041100D02*
X068165D01*
X068100Y041035D02*
Y041165D01*
X067565Y040750D02*
X067435D01*
X067500Y040685D02*
Y040815D01*
X067362Y040403D02*
X067232D01*
X067297Y040338D02*
Y040468D01*
X066350Y040585D02*
Y040715D01*
X066285Y040650D02*
X066415D01*
X066885Y039500D02*
X067015D01*
X066950Y039435D02*
Y039565D01*
M02*
